<svg xmlns="http://www.w3.org/2000/svg" width="1640" height="624" viewBox="0 0 1640 624" role="img" aria-label="One80 English Facebook cover">
  <style>@import url('https://fonts.googleapis.com/css2?family=Inter:wght@400;500;600;700&amp;display=swap');.wm{font-family:'Inter','Segoe UI',Arial,sans-serif;}</style>
  <defs>
    <linearGradient id="bg" x1="0" y1="0" x2="1" y2="1">
      <stop offset="0" stop-color="#21407F"/><stop offset="1" stop-color="#142457"/>
    </linearGradient>
  </defs>
  <rect width="1640" height="624" fill="url(#bg)"/>
  <g transform="translate(489,104) scale(1.8)">
    <g stroke="#FFFFFF" stroke-width="2.6" stroke-linecap="round"><line x1="24" y1="96" x2="17" y2="96"/><line x1="39.82" y1="57.82" x2="34.87" y2="52.87"/><line x1="78" y1="42" x2="78" y2="35"/><line x1="116.18" y1="57.82" x2="121.13" y2="52.87"/><line x1="132" y1="96" x2="139" y2="96"/></g>
    <path d="M24 96 A54 54 0 0 1 132 96" fill="none" stroke="#FFFFFF" stroke-width="6" stroke-linecap="round"/>
    <path d="M37 96 A41 41 0 0 1 119 96" fill="none" stroke="#FF5A52" stroke-width="5" stroke-linecap="round"/>
    <line x1="78" y1="96" x2="124" y2="98.5" stroke="#FFFFFF" stroke-width="4.5" stroke-linecap="round"/>
    <circle cx="78" cy="96" r="6.5" fill="#FF5A52"/><circle cx="78" cy="96" r="2.3" fill="#1A2F6E"/>
    <text class="wm" x="8" y="116" font-size="12.5" font-weight="600" fill="#A9B6E0">0</text>
    <text class="wm" x="118" y="116" font-size="12.5" font-weight="700" fill="#FF5A52">180</text>
    <text class="wm" x="190" y="92" font-size="50" font-weight="500" fill="#FFFFFF">One<tspan font-weight="700" fill="#FF5A52">80</tspan></text>
    <text class="wm" x="190" y="116" font-size="13" textLength="133" lengthAdjust="spacing" font-weight="700" fill="#FFFFFF">ENGLISH</text>
  </g>
  <text class="wm" x="820" y="430" font-size="38" font-weight="500" fill="#C7D0EC" text-anchor="middle">Turn your English around — a full 180°.</text>
</svg>
