<svg xmlns="http://www.w3.org/2000/svg" viewBox="40 32 216 180" role="img" aria-label="One80 English"><style>@import url("https://fonts.googleapis.com/css2?family=Inter:wght@600;700;800&amp;display=swap");text{font-family:"Inter","Segoe UI",Arial,sans-serif}</style><rect x="40" y="36" width="208" height="170" fill="#FBFCFF" stroke="#E6EBF7"/><circle cx="140" cy="132" r="80" fill="none" stroke="#C9D2EC" stroke-width="1"/><circle cx="140" cy="132" r="64" fill="none" stroke="#C9D2EC" stroke-width="1" stroke-dasharray="3 3"/><line x1="40" y1="132" x2="248" y2="132" stroke="#C9D2EC" stroke-width="1"/><line x1="140" y1="32" x2="140" y2="152" stroke="#C9D2EC" stroke-width="1"/><line x1="140" y1="132" x2="62.06" y2="87" stroke="#9AA7D0" stroke-width="0.7" stroke-dasharray="2 3"/><line x1="140" y1="132" x2="95" y2="54.06" stroke="#9AA7D0" stroke-width="0.7" stroke-dasharray="2 3"/><line x1="140" y1="132" x2="140" y2="42" stroke="#9AA7D0" stroke-width="0.7" stroke-dasharray="2 3"/><line x1="140" y1="132" x2="185" y2="54.06" stroke="#9AA7D0" stroke-width="0.7" stroke-dasharray="2 3"/><line x1="140" y1="132" x2="217.94" y2="87" stroke="#9AA7D0" stroke-width="0.7" stroke-dasharray="2 3"/><g fill="none" stroke="#AAB4D6" stroke-width="3" stroke-linecap="round"><line x1="84.57" y1="100" x2="76.78" y2="95.5"/><line x1="108" y1="76.57" x2="103.5" y2="68.78"/><line x1="140" y1="68" x2="140" y2="59"/><line x1="172" y1="76.57" x2="176.5" y2="68.78"/><line x1="195.43" y1="100" x2="203.22" y2="95.5"/></g>
<path d="M60 132 A80 80 0 0 1 220 132" fill="none" stroke="#13205A" stroke-width="7" stroke-linecap="round"/>
<path d="M125.23 129.4 L141.22 125.11 L218.78 145.89 L138.78 138.89 Z" fill="#E4222B" stroke="#E4222B" stroke-width="1" stroke-linejoin="round"/>
<circle cx="140" cy="132" r="8" fill="#E4222B"/><circle cx="140" cy="132" r="3.1" fill="#FFFFFF"/><circle cx="140" cy="132" r="2" fill="#9AA7D0"/></svg>
